<svg aria-hidden="true" style="width:0;height:0;position:absolute" xmlns="http://www.w3.org/2000/svg" overflow="hidden"><defs><symbol id="film" fill="none" viewBox="0 0 24 24"><path d="M19.82 2H4.18A2.18 2.18 0 0 0 2 4.18v15.64A2.18 2.18 0 0 0 4.18 22h15.64A2.18 2.18 0 0 0 22 19.82V4.18A2.18 2.18 0 0 0 19.82 2ZM7 2v20M17 2v20M2 12h20M2 7h5M2 17h5m10 0h5M17 7h5" stroke="#818181" stroke-width="2" stroke-linecap="round" stroke-linejoin="round"/></symbol><symbol id="search" viewBox="0 0 32 32"><path d="M19.427 20.427a8.5 8.5 0 1 1 1.083-.917l5.997 5.997a.699.699 0 0 1-.008.992.7.7 0 0 1-.992.008l-6.081-6.081zM14.5 21a7.5 7.5 0 1 0 0-15 7.5 7.5 0 0 0 0 15z"/></symbol></defs></svg>