<svg aria-hidden="true" style="width:0;height:0;position:absolute" xmlns="http://www.w3.org/2000/svg" overflow="hidden"><defs><symbol id="film" fill="none" viewBox="0 0 24 24"><path d="M19.82 2H4.18A2.18 2.18 0 0 0 2 4.18v15.64A2.18 2.18 0 0 0 4.18 22h15.64A2.18 2.18 0 0 0 22 19.82V4.18A2.18 2.18 0 0 0 19.82 2ZM7 2v20M17 2v20M2 12h20M2 7h5M2 17h5m10 0h5M17 7h5" stroke="#818181" stroke-width="2" stroke-linecap="round" stroke-linejoin="round"/></symbol><symbol id="search" viewBox="0 0 32 32"><path d="M19.427 20.427a8.5 8.5 0 1 1 1.083-.917l5.997 5.997a.699.699 0 0 1-.008.992.7.7 0 0 1-.992.008l-6.081-6.081zM14.5 21a7.5 7.5 0 1 0 0-15 7.5 7.5 0 0 0 0 15z"/></symbol><symbol id="arrowleft" viewBox="0 0 40 40"><svg width="40" height="40" viewBox="0 0 40 40" fill="none" xmlns="http://www.w3.org/2000/svg"><rect width="40" height="40" rx="5" fill="#F7F7F7"/><path d="M24.667 20h-9.334M20 24.667 15.333 20 20 15.333" stroke="#000" stroke-width="1.333" stroke-linecap="round" stroke-linejoin="round"/></svg></symbol><symbol id="arrowright" viewBox="0 0 40 40"><svg width="40" height="40" viewBox="0 0 40 40" fill="none" xmlns="http://www.w3.org/2000/svg"><rect width="40" height="40" rx="5" transform="matrix(-1 0 0 1 40 0)" fill="#F7F7F7"/><path d="M15.333 20h9.334M20 24.667 24.667 20 20 15.333" stroke="#000" stroke-width="1.333" stroke-linecap="round" stroke-linejoin="round"/></svg></symbol><symbol id="ellipsis" viewBox="0 0 10 3"><path d="M15.333 20h9.334" stroke="#000" stroke-width="1.333" stroke-linecap="round" stroke-linejoin="round"/><path d="M1.617.5c.266 0 .47.076.615.229a.773.773 0 0 1 .217.562.766.766 0 0 1-.217.557c-.144.144-.35.216-.615.216-.254 0-.455-.072-.603-.216A.743.743 0 0 1 .79 1.29c0-.227.072-.414.217-.562.144-.153.347-.229.61-.229ZM4.97.5c.265 0 .47.076.615.229a.773.773 0 0 1 .217.562.766.766 0 0 1-.217.557c-.145.144-.35.216-.615.216-.254 0-.455-.072-.604-.216a.743.743 0 0 1-.222-.557c0-.227.072-.414.216-.562C4.504.576 4.707.5 4.97.5ZM8.32.5c.266 0 .471.076.616.229a.773.773 0 0 1 .216.562.766.766 0 0 1-.216.557c-.145.144-.35.216-.616.216-.254 0-.455-.072-.603-.216a.743.743 0 0 1-.223-.557c0-.227.072-.414.217-.562C7.855.576 8.059.5 8.32.5Z"/></symbol></defs></svg>